<!DOCTYPE svg PUBLIC "-//W3C//DTD SVG 20010904//EN" "http://www.w3.org/TR/2001/REC-SVG-20010904/DTD/svg10.dtd">
<svg version="1.0" xmlns="http://www.w3.org/2000/svg" width="600px" height="600px" viewBox="0 0 6000 6000" preserveAspectRatio="xMidYMid meet">
<g id="layer101" fill="#000000" stroke="none">
 <path d="M1199 3446 c-3 -3 -47 -12 -99 -21 -107 -17 -166 -37 -295 -101 -110 -54 -175 -94 -188 -115 -5 -9 -7 -28 -3 -42 10 -41 45 -44 145 -13 163 50 241 61 446 61 211 0 309 -13 480 -64 138 -41 306 -99 319 -110 6 -5 49 -25 96 -44 84 -34 221 -96 270 -123 14 -7 44 -23 68 -34 61 -28 252 -132 352 -192 86 -50 452 -238 465 -238 4 0 58 -24 120 -54 61 -30 130 -59 151 -65 21 -6 53 -19 69 -29 36 -22 228 -83 340 -109 111 -25 438 -24 535 1 90 24 233 82 288 117 25 16 50 29 55 29 9 0 66 43 151 115 33 27 72 59 87 70 47 34 255 276 303 353 35 56 33 101 -7 120 -23 11 -36 11 -80 -1 -47 -13 -143 -32 -342 -68 -89 -16 -607 -17 -685 -1 -51 10 -99 18 -260 43 -36 6 -103 19 -150 29 -47 11 -132 29 -190 39 -58 11 -136 29 -175 40 -38 11 -124 33 -190 49 -264 65 -382 95 -425 109 -74 25 -480 129 -750 193 -161 38 -318 53 -615 57 -155 2 -283 2 -286 -1z"/>
 </g>

</svg>